<?xml version="1.0" standalone="no"?>
<!DOCTYPE svg PUBLIC "-//W3C//DTD SVG 20010904//EN"
 "http://www.w3.org/TR/2001/REC-SVG-20010904/DTD/svg10.dtd">
<svg version="1.0" xmlns="http://www.w3.org/2000/svg"
 width="1000.000000pt" height="1000.000000pt" viewBox="0 0 1000.000000 1000.000000"
 preserveAspectRatio="xMidYMid meet">

<g transform="translate(0.000000,1000.000000) scale(0.100000,-0.100000)"
fill="#000000" stroke="none">
<path d="M0 5000 l0 -5000 5000 0 5000 0 0 5000 0 5000 -5000 0 -5000 0 0
-5000z m7607 4238 c-3 -8 -6 -5 -6 6 -1 11 2 17 5 13 3 -3 4 -12 1 -19z m-607
-4 c0 -8 -5 -12 -10 -9 -6 4 -8 11 -5 16 9 14 15 11 15 -7z m47 -76 c-3 -7 -5
-2 -5 12 0 14 2 19 5 13 2 -7 2 -19 0 -25z m-70 -4 c-3 -3 -12 -4 -19 -1 -8 3
-5 6 6 6 11 1 17 -2 13 -5z m2330 -76 c-3 -8 -6 -5 -6 6 -1 11 2 17 5 13 3 -3
4 -12 1 -19z m-2181 -15 c-10 -10 -19 5 -10 18 6 11 8 11 12 0 2 -7 1 -15 -2
-18z m-56 -134 c0 -5 -7 -9 -15 -9 -9 0 -12 6 -9 15 6 15 24 11 24 -6z m-400
-50 c0 -18 -5 -29 -11 -27 -6 2 -10 7 -10 11 1 4 1 19 1 33 0 14 4 23 10 19 6
-3 10 -20 10 -36z m-90 -23 c0 -9 -30 -14 -35 -6 -4 6 3 10 14 10 12 0 21 -2
21 -4z m34 -41 c3 -8 13 -15 23 -15 14 -1 13 -4 -7 -15 -33 -19 -38 -18 -45 5
-11 33 16 57 29 25z m1981 -43 c-6 -16 -8 -15 -21 2 -10 15 -11 23 -2 33 10
12 13 12 21 -2 5 -9 6 -24 2 -33z m-135 -22 c0 -20 -5 -30 -15 -30 -10 0 -15
10 -15 30 0 20 5 30 15 30 10 0 15 -10 15 -30z m-60 -16 c0 -8 -5 -12 -10 -9
-6 4 -8 11 -5 16 9 14 15 11 15 -7z m592 -31 c31 -28 16 -93 -22 -93 -18 0
-20 7 -20 55 0 59 10 68 42 38z m-1922 -15 c0 -16 -3 -19 -11 -11 -6 6 -8 16
-5 22 11 17 16 13 16 -11z m1600 6 c0 -14 -3 -14 -15 -4 -8 7 -15 14 -15 16 0
2 7 4 15 4 8 0 15 -7 15 -16z m-1085 -79 c0 -10 -6 -20 -12 -22 -8 -3 -13 5
-13 22 0 17 5 25 13 23 6 -3 12 -13 12 -23z m777 -80 c2 -24 -1 -30 -17 -30
-15 0 -19 6 -17 25 6 60 28 64 34 5z m303 -55 c-5 -8 -11 -8 -17 -2 -6 6 -7
16 -3 22 5 8 11 8 17 2 6 -6 7 -16 3 -22z m-2615 -5 c0 -14 -4 -25 -10 -25 -5
0 -10 11 -10 25 0 14 5 25 10 25 6 0 10 -11 10 -25z m1298 7 c2 -7 -3 -12 -12
-12 -9 0 -16 7 -16 16 0 17 22 14 28 -4z m-220 -65 c3 -46 2 -48 -20 -45 -13
2 -23 9 -22 16 1 6 2 28 3 48 1 28 5 35 19 32 13 -2 18 -15 20 -51z m-258 -12
c0 -30 -19 -52 -34 -38 -11 12 -6 71 7 76 20 7 27 -2 27 -38z m-500 -27 c0
-16 -3 -19 -11 -11 -6 6 -8 16 -5 22 11 17 16 13 16 -11z m670 -83 c6 3 10 -5
10 -18 0 -20 -6 -26 -32 -30 -51 -7 -73 17 -42 47 12 12 20 13 35 6 11 -6 24
-8 29 -5z m1460 -106 c0 -31 -4 -48 -10 -44 -17 11 -12 95 7 95 2 0 3 -23 3
-51z m-1666 -61 c6 -37 4 -46 -15 -60 -11 -10 -27 -18 -35 -18 -7 0 -18 -8
-24 -17 -11 -17 -11 -17 -6 0 4 12 0 17 -15 17 -26 0 -43 40 -35 84 l7 36 58
0 58 0 7 -42z m-2784 -27 c0 -20 -13 -41 -21 -35 -15 9 -10 44 6 44 8 0 15 -4
15 -9z m-1030 -63 c0 -10 -4 -18 -10 -18 -5 0 -10 15 -10 33 0 24 3 28 10 17
5 -8 10 -23 10 -32z m930 25 c0 -26 -16 -47 -29 -39 -6 4 -11 18 -11 32 0 17
5 24 20 24 12 0 20 -7 20 -17z m2248 -161 c2 -7 -3 -12 -12 -12 -9 0 -16 7
-16 16 0 17 22 14 28 -4z m-460 -35 c5 -27 -17 -50 -34 -36 -15 12 -19 41 -7
53 12 12 38 1 41 -17z m3505 -24 c-3 -7 -9 -13 -14 -13 -11 0 -12 44 -2 54 9
9 22 -25 16 -41z m-4588 7 c3 -5 -1 -10 -10 -10 -9 0 -13 5 -10 10 3 6 8 10
10 10 2 0 7 -4 10 -10z m602 -22 c-3 -8 -6 -5 -6 6 -1 11 2 17 5 13 3 -3 4
-12 1 -19z m1214 -52 c-4 -57 -24 -85 -50 -69 -35 23 -2 129 38 121 13 -3 15
-14 12 -52z m-2181 -21 c0 -36 -13 -47 -24 -19 -11 28 -6 54 9 54 10 0 15 -11
15 -35z m3660 15 c0 -11 -4 -20 -10 -20 -5 0 -10 9 -10 20 0 11 5 20 10 20 6
0 10 -9 10 -20z m-360 -5 c0 -8 -7 -15 -15 -15 -8 0 -15 7 -15 15 0 8 7 15 15
15 8 0 15 -7 15 -15z m-3632 -36 c1 -8 -4 -23 -12 -34 -15 -19 -15 -18 -16 18
0 27 4 37 13 35 6 -3 13 -11 15 -19z m4342 -9 c0 -32 -14 -40 -24 -14 -10 27
-7 44 9 44 10 0 15 -10 15 -30z m630 15 c0 -8 -4 -15 -9 -15 -13 0 -22 16 -14
24 11 11 23 6 23 -9z m-3580 -35 c0 -11 -4 -20 -10 -20 -5 0 -10 9 -10 20 0
11 5 20 10 20 6 0 10 -9 10 -20z m-280 -171 c0 -49 0 -50 -22 -35 -12 9 -22
27 -23 43 -2 36 2 43 26 43 16 0 19 -7 19 -51z m-3610 11 c0 -5 -7 -10 -16
-10 -8 0 -12 5 -9 10 3 6 10 10 16 10 5 0 9 -4 9 -10z m5650 -50 c0 -20 -5
-30 -15 -30 -10 0 -15 10 -15 30 0 20 5 30 15 30 10 0 15 -10 15 -30z m-433
-2 c-3 -8 -6 -5 -6 6 -1 11 2 17 5 13 3 -3 4 -12 1 -19z m-2219 -65 c3 -29 0
-33 -22 -33 -31 0 -39 12 -30 45 10 40 48 31 52 -12z m-1933 -12 c0 -32 -23
-39 -34 -9 -11 28 -5 40 17 36 10 -2 17 -13 17 -27z m862 -13 c-3 -7 -5 -2 -5
12 0 14 2 19 5 13 2 -7 2 -19 0 -25z m4557 -4 c21 -8 23 -119 3 -127 -24 -9
-39 10 -44 56 -8 69 2 86 41 71z m-7484 -20 c0 -8 -5 -12 -10 -9 -6 4 -8 11
-5 16 9 14 15 11 15 -7z m8425 -12 c0 -31 -19 -28 -23 4 -3 18 0 25 10 22 7
-3 13 -14 13 -26z m-7988 -24 c-3 -8 -6 -5 -6 6 -1 11 2 17 5 13 3 -3 4 -12 1
-19z m7371 -19 c-2 -6 -8 -10 -13 -10 -5 0 -11 4 -13 10 -2 6 4 11 13 11 9 0
15 -5 13 -11z m-328 -104 c0 -8 -4 -15 -10 -15 -5 0 -7 7 -4 15 4 8 8 15 10
15 2 0 4 -7 4 -15z m-2944 -57 c3 -5 -2 -18 -11 -28 -16 -18 -17 -18 -36 1
-10 10 -19 23 -19 28 0 20 54 20 66 -1z m2174 -32 c0 -8 -4 -18 -10 -21 -5 -3
-10 3 -10 14 0 12 5 21 10 21 6 0 10 -6 10 -14z m95 -6 c-3 -5 -12 -7 -20 -3
-21 7 -19 13 6 13 11 0 18 -4 14 -10z m-2175 -76 c0 -8 -7 -14 -15 -14 -15 0
-21 21 -9 33 10 9 24 -2 24 -19z m2910 -28 c0 -8 -4 -18 -10 -21 -5 -3 -10 3
-10 14 0 12 5 21 10 21 6 0 10 -6 10 -14z m-6740 -86 c0 -5 -4 -10 -10 -10 -5
0 -10 5 -10 10 0 6 5 10 10 10 6 0 10 -4 10 -10z m3466 -27 c-11 -11 -19 6
-11 24 8 17 8 17 12 0 3 -10 2 -21 -1 -24z m-524 -47 c18 -26 8 -46 -22 -46
-28 0 -30 3 -30 36 0 32 2 35 23 28 12 -4 25 -12 29 -18z m-1324 -118 c18 -18
15 -87 -3 -94 -25 -10 -45 16 -45 56 0 50 20 66 48 38z m-220 -41 c2 -11 -3
-17 -16 -17 -20 0 -36 23 -24 34 11 12 37 1 40 -17z m1912 -37 c0 -5 -4 -10
-10 -10 -5 0 -10 5 -10 10 0 6 5 10 10 10 6 0 10 -4 10 -10z m443 -113 c-4
-20 -8 -24 -17 -14 -21 21 -27 47 -11 47 8 0 15 8 16 18 0 14 2 13 9 -4 4 -11
6 -32 3 -47z m4147 24 c0 -26 -5 -41 -16 -45 -24 -9 -24 -9 -24 39 0 38 3 45
20 45 17 0 20 -7 20 -39z m164 23 c9 -24 7 -80 -4 -109 -17 -44 -40 -14 -40
49 0 63 28 101 44 60z m-6681 -63 c6 -25 -10 -51 -33 -51 -15 0 -20 7 -20 28
0 16 3 32 7 35 13 14 41 7 46 -12z m7283 -70 c-1 -25 -6 -45 -9 -43 -4 1 -11
2 -17 2 -13 0 -24 64 -16 96 7 25 8 25 26 9 14 -13 18 -28 16 -64z m-7161 24
c0 -25 -4 -30 -27 -33 -26 -3 -28 -1 -28 33 0 34 2 36 28 33 23 -3 27 -8 27
-33z m95 16 c10 -21 4 -51 -11 -51 -5 0 -9 16 -9 35 0 40 5 43 20 16z m-985
-108 l-8 -28 -7 30 c-8 35 -2 51 12 37 6 -6 7 -22 3 -39z m875 7 c0 -5 -4 -10
-10 -10 -5 0 -10 5 -10 10 0 6 5 10 10 10 6 0 10 -4 10 -10z m3040 -41 c0 -10
-7 -19 -15 -19 -16 0 -19 9 -9 34 8 20 24 11 24 -15z m340 15 c0 -8 -4 -12
-10 -9 -5 3 -10 10 -10 16 0 5 5 9 10 9 6 0 10 -7 10 -16z m480 -25 c0 -24 -4
-38 -10 -34 -17 10 -11 75 7 75 2 0 3 -18 3 -41z m-940 -54 c0 -8 -4 -15 -10
-15 -5 0 -10 7 -10 15 0 8 5 15 10 15 6 0 10 -7 10 -15z m-3752 -58 c2 -27 -1
-37 -11 -37 -17 0 -27 21 -27 57 0 18 5 24 18 21 12 -2 18 -14 20 -41z m2502
-41 c0 -46 -3 -54 -17 -52 -14 2 -17 11 -14 47 3 48 7 59 22 59 5 0 9 -24 9
-54z m-3283 -48 c-3 -8 -6 -5 -6 6 -1 11 2 17 5 13 3 -3 4 -12 1 -19z m3678
13 c3 -5 1 -12 -5 -16 -5 -3 -10 1 -10 9 0 18 6 21 15 7z m-1033 -86 c4 -16 5
-40 1 -53 -4 -19 -11 -23 -36 -20 -34 3 -49 34 -40 82 5 23 10 27 36 24 24 -2
32 -9 39 -33z m2143 -4 c3 -5 1 -12 -5 -16 -5 -3 -10 1 -10 9 0 18 6 21 15 7z
m-1355 -37 c0 -8 -4 -12 -10 -9 -5 3 -10 10 -10 16 0 5 5 9 10 9 6 0 10 -7 10
-16z m1352 -26 c-9 -9 -12 -7 -12 12 0 19 3 21 12 12 9 -9 9 -15 0 -24z
m-4802 -88 c0 -11 -4 -20 -10 -20 -5 0 -10 9 -10 20 0 11 5 20 10 20 6 0 10
-9 10 -20z m4341 -63 c3 -78 -11 -120 -36 -111 -8 4 -15 12 -15 19 0 7 -4 15
-9 17 -5 2 -11 27 -14 56 -4 48 -3 54 17 62 32 12 56 -6 57 -43z m-1905 -23
c-11 -28 -28 -1 -20 32 7 27 8 28 17 7 5 -12 7 -30 3 -39z m-2052 30 c8 -20
-1 -34 -20 -34 -15 0 -17 9 -8 34 8 20 20 20 28 0z m2116 12 c0 -3 -4 -8 -10
-11 -5 -3 -10 -1 -10 4 0 6 5 11 10 11 6 0 10 -2 10 -4z m-853 -98 c-3 -7 -5
-2 -5 12 0 14 2 19 5 13 2 -7 2 -19 0 -25z m-397 2 c0 -11 -4 -20 -10 -20 -5
0 -10 9 -10 20 0 11 5 20 10 20 6 0 10 -9 10 -20z m580 11 c0 -5 2 -15 5 -23
3 -7 -1 -22 -9 -33 -14 -19 -15 -17 -16 23 0 23 5 42 10 42 6 0 10 -4 10 -9z
m1920 -136 c0 -28 -4 -35 -20 -35 -16 0 -20 7 -20 35 0 28 4 35 20 35 16 0 20
-7 20 -35z m890 -65 c0 -11 -4 -20 -10 -20 -5 0 -10 9 -10 20 0 11 5 20 10 20
6 0 10 -9 10 -20z m-480 -54 c12 -33 2 -66 -21 -66 -24 0 -42 35 -35 66 8 32
43 32 56 0z m-220 -64 c0 -9 -5 -24 -10 -32 -7 -11 -10 -5 -10 23 0 23 4 36
10 32 6 -3 10 -14 10 -23z m-3528 -54 c-9 -9 -12 -4 -11 23 0 32 1 33 11 11 8
-17 8 -26 0 -34z m2685 -45 c-3 -10 -5 -4 -5 12 0 17 2 24 5 18 2 -7 2 -21 0
-30z m-2817 -173 c0 -5 -2 -10 -4 -10 -3 0 -8 5 -11 10 -3 6 -1 10 4 10 6 0
11 -4 11 -10z m338 -212 c-2 -22 -9 -34 -20 -36 -15 -3 -18 4 -18 32 0 30 4
36 21 36 17 0 20 -5 17 -32z m109 -124 c8 -20 -13 -42 -27 -28 -12 12 -3 44
11 44 5 0 12 -7 16 -16z m5867 -182 c-2 -80 -10 -110 -24 -96 -14 14 0 176 14
171 7 -3 10 -31 10 -75z m-2084 53 c-12 -15 -30 -12 -30 6 0 5 10 9 21 9 18 0
19 -2 9 -15z m2562 -87 c3 -64 1 -88 -8 -88 -15 0 -28 117 -19 161 11 51 23
20 27 -73z m1435 22 c1 -41 -1 -80 -5 -87 -4 -6 -19 -9 -35 -6 -27 5 -27 6
-27 90 l0 84 33 -3 32 -3 2 -75z m-1520 28 c-3 -10 0 -33 5 -52 7 -23 7 -39 0
-52 -10 -18 -11 -17 -20 7 -6 14 -8 37 -5 52 3 15 0 33 -6 41 -6 7 -8 21 -5
30 9 23 37 -1 31 -26z m-87 -40 c0 -18 -4 -28 -12 -26 -18 6 -32 34 -25 51 10
27 37 8 37 -25z m-704 18 c37 -37 -1 -75 -61 -60 -21 5 -25 12 -25 40 0 32 2
34 36 34 19 0 42 -6 50 -14z m-1296 -46 c0 -5 -10 -10 -22 -9 -22 0 -22 1 -3
9 11 5 21 9 23 9 1 1 2 -3 2 -9z m-50 -30 c0 -5 -4 -10 -10 -10 -5 0 -10 5
-10 10 0 6 5 10 10 10 6 0 10 -4 10 -10z m-120 -34 c0 -9 -9 -13 -25 -12 -13
2 -22 0 -20 -5 6 -9 -14 -23 -22 -15 -10 10 29 46 49 46 10 0 18 -6 18 -14z
m3765 -74 c-4 -11 -8 -13 -13 -5 -4 6 -15 12 -25 14 -28 6 -25 24 6 27 17 2
28 10 28 20 1 9 4 4 6 -11 3 -16 2 -36 -2 -45z m-2602 40 c43 -7 35 -38 -15
-61 -24 -11 -54 -21 -68 -23 -21 -3 -25 1 -22 22 1 14 7 27 12 28 6 2 10 8 10
13 0 18 25 38 40 32 8 -3 27 -8 43 -11z m-123 -16 c0 -17 -27 -29 -35 -16 -4
6 -3 15 0 20 9 15 35 12 35 -4z m-29 -89 c-16 -16 -26 0 -10 19 9 11 15 12 17
4 2 -6 -1 -17 -7 -23z m-51 3 c0 -5 -7 -10 -16 -10 -8 0 -12 5 -9 10 3 6 10
10 16 10 5 0 9 -4 9 -10z m286 -32 c2 -21 -1 -38 -5 -38 -5 0 -14 -14 -20 -30
-6 -18 -21 -34 -36 -40 -15 -6 -29 -19 -32 -30 -3 -11 -9 -20 -13 -20 -13 0
-19 26 -10 40 10 17 3 33 -11 24 -6 -3 -30 0 -55 7 -35 11 -44 18 -44 36 0 13
-1 26 -2 30 -2 4 13 11 32 15 19 5 40 10 45 12 6 1 28 6 50 11 22 4 47 11 55
16 28 16 42 5 46 -33z m-1303 5 c3 -5 8 -29 11 -55 8 -53 -6 -66 -26 -23 -6
14 -17 25 -25 25 -16 0 -17 32 -1 48 14 14 35 16 41 5z m1357 -10 c-1 -19 -22
-53 -34 -53 -3 0 -6 9 -6 20 0 11 5 20 10 20 6 0 9 3 9 8 -3 14 1 22 11 22 6
0 10 -8 10 -17z m-410 -108 c0 -8 5 -15 10 -15 6 0 10 -11 10 -24 0 -14 -4
-28 -10 -31 -5 -3 -10 -15 -10 -26 0 -23 -26 -25 -38 -3 -8 14 -10 13 -16 -9
-3 -14 -3 -33 0 -41 3 -9 0 -23 -7 -32 -7 -8 -16 -32 -20 -52 -6 -31 -7 -25
-8 33 -1 39 -6 88 -11 110 -13 53 3 92 38 98 53 8 62 7 62 -8z m-130 -136 c0
-75 -4 -119 -10 -119 -16 0 -27 38 -33 122 -7 86 3 131 28 122 12 -5 15 -27
15 -125z m653 83 c-20 -36 -53 -43 -53 -12 0 18 16 25 43 21 4 0 7 9 7 21 0
15 3 19 10 12 8 -8 5 -20 -7 -42z m2418 38 c18 0 19 -8 19 -109 0 -103 -1
-110 -21 -116 -19 -6 -21 -13 -16 -51 2 -24 0 -45 -5 -46 -5 -2 -12 -23 -15
-46 -3 -23 -8 -40 -12 -37 -3 4 -11 -9 -17 -27 -10 -30 -11 -26 -19 62 -5 52
-8 133 -8 180 0 79 1 85 21 88 20 3 22 10 22 59 0 46 3 54 16 49 9 -3 24 -6
35 -6z m-3712 -32 c-10 -38 -23 -53 -38 -44 -16 10 -14 20 10 50 28 35 40 33
28 -6z m1069 -33 c49 -22 52 -30 15 -40 -24 -6 -26 -8 -12 -18 22 -17 30 -44
19 -69 -5 -13 -9 -17 -9 -10 -1 6 -12 12 -26 12 -15 0 -25 6 -25 14 0 8 -7 16
-14 19 -11 4 -13 16 -9 40 7 44 -21 60 -39 22 -6 -13 -15 -22 -19 -19 -9 5
-13 57 -5 65 11 11 85 1 124 -16z m262 5 c0 -5 -4 -10 -10 -10 -5 0 -10 5 -10
10 0 6 5 10 10 10 6 0 10 -4 10 -10z m-5774 -81 c8 -14 -18 -31 -30 -19 -9 9
0 30 14 30 5 0 12 -5 16 -11z m4084 -10 c0 -6 -4 -7 -10 -4 -5 3 -10 11 -10
16 0 6 5 7 10 4 6 -3 10 -11 10 -16z m282 -14 c-2 -14 -8 -25 -13 -25 -5 0 -9
11 -9 25 0 14 6 25 14 25 9 0 12 -8 8 -25z m59 -23 c-6 -2 -11 -11 -11 -19 0
-9 -3 -14 -6 -10 -3 3 0 23 7 44 12 34 14 36 17 13 2 -13 -1 -26 -7 -28z
m-361 -14 c0 -40 -1 -40 -19 -24 -10 9 -25 16 -32 14 -8 -2 -14 5 -14 17 0 14
9 22 30 26 17 4 31 7 33 8 1 0 2 -18 2 -41z m299 -3 c7 3 11 -2 11 -14 0 -15
-6 -21 -21 -21 -21 0 -49 22 -49 38 0 17 24 20 37 5 6 -8 16 -12 22 -8z m828
-17 c-3 -7 -5 -2 -5 12 0 14 2 19 5 13 2 -7 2 -19 0 -25z m-1162 -58 c3 -5 1
-10 -4 -10 -6 0 -11 5 -11 10 0 6 2 10 4 10 3 0 8 -4 11 -10z m271 -58 c-5 -8
-66 -4 -66 4 0 2 16 4 36 4 19 0 33 -4 30 -8z m3914 -118 c0 -2 -7 -4 -15 -4
-8 0 -15 4 -15 10 0 5 7 7 15 4 8 -4 15 -8 15 -10z m-7894 -611 c-10 -10 -19
5 -10 18 6 11 8 11 12 0 2 -7 1 -15 -2 -18z m2767 -313 c-3 -11 -9 -20 -14
-20 -10 0 -12 24 -2 33 13 13 21 7 16 -13z m-639 -9 c3 -5 6 -41 7 -81 1 -57
6 -77 21 -92 10 -10 23 -30 28 -43 7 -18 17 -25 35 -25 14 0 25 5 25 11 0 6 7
18 16 26 13 13 17 14 24 3 4 -7 22 -13 39 -12 19 0 35 -6 41 -16 7 -13 9 -8
10 23 0 52 8 61 50 61 28 -1 34 3 32 17 -6 36 79 12 115 -33 7 -8 11 -20 8
-27 -5 -15 11 -27 25 -18 8 5 7 11 -1 21 -7 8 -7 14 -1 14 14 0 22 -24 15 -49
-4 -14 -1 -21 9 -21 21 0 42 -67 44 -144 2 -65 0 -72 -27 -99 -21 -20 -36 -28
-51 -24 -12 3 -39 -3 -61 -14 -54 -28 -97 -16 -112 30 -7 22 -5 23 19 17 19
-5 28 -2 32 9 7 17 31 20 36 4 4 -13 58 -1 58 13 0 5 -5 19 -11 31 -8 14 -9
22 -1 25 5 1 23 14 39 28 15 13 31 24 34 24 4 0 9 6 12 13 7 19 -45 9 -56 -9
-4 -8 -15 -14 -22 -14 -8 0 -15 -4 -15 -9 0 -5 -8 -12 -17 -15 -29 -10 -65
-33 -73 -46 -11 -17 -147 -25 -166 -9 -7 6 -23 9 -35 6 -19 -5 -87 17 -99 32
-3 3 -18 13 -35 21 -16 8 -39 23 -49 33 -11 9 -23 17 -27 17 -24 0 -29 98 -6
128 14 18 44 15 56 -5 5 -10 13 -15 16 -11 4 4 3 13 -1 20 -5 7 -7 20 -6 30 2
9 -2 19 -8 23 -5 3 -10 37 -10 76 0 62 2 69 19 69 11 0 22 -4 25 -9z m-111
-114 c7 -5 2 -7 -13 -5 -14 2 -23 7 -22 12 2 5 -2 13 -10 17 -8 5 -9 9 -2 9 7
0 15 10 19 23 7 19 9 18 12 -13 3 -19 10 -38 16 -43z m847 -179 c0 -5 -4 -8
-10 -8 -5 0 -10 10 -10 23 0 18 2 19 10 7 5 -8 10 -18 10 -22z m2371 -79 c-6
-17 -8 -58 -4 -92 6 -71 35 -107 84 -107 20 0 30 -6 35 -22 4 -13 6 -25 5 -28
-1 -3 8 -8 21 -11 13 -3 22 -11 21 -17 -2 -7 6 -12 17 -12 11 0 20 7 20 15 0
8 5 15 10 15 6 0 10 9 10 20 0 11 4 20 10 20 6 0 9 -3 9 -7 -1 -5 -1 -15 0
-23 1 -13 2 -13 12 0 8 11 12 12 16 3 2 -7 11 -13 18 -13 22 0 27 -34 24 -173
l-3 -132 44 -8 c25 -4 66 -10 92 -13 26 -4 53 -13 59 -20 8 -10 37 -14 100
-14 87 0 107 -8 72 -29 -10 -6 -13 -11 -6 -11 6 0 15 -10 19 -22 4 -13 12 -27
18 -31 8 -6 6 -11 -5 -19 -14 -10 -14 -13 3 -30 10 -10 18 -27 18 -38 0 -17
-7 -20 -40 -20 -46 0 -52 -12 -13 -29 22 -10 24 -14 12 -22 -7 -5 -21 -9 -30
-9 -9 0 -20 -7 -23 -16 -4 -11 -13 -14 -31 -10 -19 5 -30 0 -50 -22 -21 -24
-33 -29 -66 -27 -26 2 -42 -2 -46 -11 -3 -8 -19 -13 -40 -12 -26 1 -38 7 -46
25 -12 27 4 46 30 36 8 -3 17 6 24 26 9 26 14 29 30 21 16 -9 19 -7 19 10 0
16 -5 21 -22 18 -21 -3 -23 1 -23 37 0 38 -3 41 -45 62 -25 11 -49 19 -53 16
-9 -6 -47 25 -47 39 0 14 39 9 48 -7 6 -11 14 -13 29 -8 16 6 19 13 12 31 -5
12 -15 22 -24 22 -8 0 -15 7 -15 15 0 8 -8 15 -18 15 -18 0 -52 33 -52 50 0 6
12 10 26 10 23 0 24 2 10 15 -8 8 -21 13 -28 10 -23 -9 -43 26 -57 95 -14 69
-34 97 -39 56 -2 -14 -14 -31 -27 -40 l-23 -15 28 -58 c21 -42 26 -62 19 -75
-6 -12 -6 -18 1 -18 5 0 10 -7 10 -15 0 -10 -11 -15 -35 -15 -24 0 -35 -5 -35
-15 0 -10 -10 -15 -29 -15 -16 0 -34 -7 -41 -15 -7 -8 -21 -15 -32 -15 -16 0
-19 4 -14 23 4 12 10 40 13 62 4 34 1 44 -20 64 -25 22 -52 21 -44 -2 2 -7 -5
-32 -16 -55 -12 -28 -21 -77 -24 -136 -5 -85 -4 -95 15 -114 16 -16 18 -22 6
-26 -8 -3 -20 6 -29 24 -15 29 -19 30 -80 30 -61 0 -65 1 -65 23 0 12 9 28 20
35 12 7 20 8 20 2 0 -5 6 -10 13 -10 9 0 13 19 14 63 7 285 8 292 23 292 9 0
42 9 73 20 58 20 84 50 55 66 -11 6 -13 38 -13 151 l1 143 35 50 c30 44 34 47
37 27 2 -13 -1 -37 -7 -53z m-2366 51 c4 -6 10 -8 15 -5 5 3 20 0 34 -6 20
-10 26 -19 25 -43 0 -17 -3 -25 -6 -19 -3 9 -11 8 -30 -4 -24 -16 -24 -17 -7
-30 10 -7 26 -13 36 -13 11 0 18 -7 18 -19 0 -11 2 -25 5 -33 6 -15 -33 -61
-55 -66 -28 -6 -34 -21 -20 -47 17 -31 60 -35 60 -5 0 11 5 20 10 20 6 0 10
-27 10 -61 0 -52 -3 -62 -20 -66 -11 -3 -20 -10 -20 -16 0 -7 -4 -7 -12 1 -10
10 -10 15 2 22 8 5 10 10 4 10 -6 0 -22 16 -35 35 -13 19 -32 35 -41 35 -10 0
-18 7 -18 15 0 8 -6 15 -13 15 -13 0 -51 39 -45 45 2 2 15 8 28 14 18 7 20 10
8 10 -11 1 -18 9 -18 22 0 14 -5 19 -14 16 -8 -3 -17 1 -20 9 -3 9 1 14 12 14
9 0 33 16 51 36 31 31 35 41 32 80 -2 41 9 58 24 34z m285 -11 c0 -24 -23 -21
-28 4 -2 10 3 17 12 17 10 0 16 -9 16 -21z m-70 -68 c0 -6 -4 -13 -10 -16 -5
-3 -10 1 -10 9 0 9 5 16 10 16 6 0 10 -4 10 -9z m70 -6 c0 -8 -2 -15 -4 -15
-2 0 -6 7 -10 15 -3 8 -1 15 4 15 6 0 10 -7 10 -15z m-4190 -30 c13 -25 30
-33 30 -15 0 6 14 10 30 10 17 0 30 -4 30 -9 0 -5 13 -12 29 -16 29 -6 30 -8
33 -78 2 -40 2 -93 0 -119 l-3 -48 -40 0 c-29 0 -47 7 -67 25 -15 14 -34 25
-42 25 -16 0 -50 33 -50 49 0 5 -5 11 -11 13 -7 2 -12 30 -13 65 0 35 3 59 8
55 5 -3 6 2 3 12 -7 17 19 56 39 56 6 0 17 -11 24 -25z m5702 10 c0 -5 -5 -11
-11 -13 -6 -2 -11 4 -11 13 0 9 5 15 11 13 6 -2 11 -8 11 -13z m433 -35 c7
-21 -9 -50 -26 -50 -5 0 -9 16 -9 35 0 39 24 49 35 15z m35 -42 c0 -74 -5 -73
-14 5 -5 38 -4 57 3 57 7 0 11 -24 11 -62z m-486 15 c9 -21 -5 -138 -14 -123
-11 17 -12 140 -2 140 6 0 13 -7 16 -17z m-1985 -37 c8 -10 9 -16 1 -21 -13
-8 -30 3 -30 21 0 18 14 18 29 0z m2121 -67 c0 -44 -4 -68 -10 -64 -5 3 -10
35 -10 71 0 36 4 64 10 64 6 0 10 -30 10 -71z m149 -28 c0 -60 -10 -88 -28
-77 -12 8 -16 148 -4 160 15 15 31 -28 32 -83z m-2269 17 c0 -21 -5 -28 -20
-28 -11 0 -20 -7 -20 -15 0 -10 -10 -15 -30 -15 -20 0 -30 5 -30 15 0 8 -3 15
-8 15 -4 0 -13 10 -21 21 -18 30 0 39 72 37 55 -2 57 -3 57 -30z m3086 2 c17
0 37 -7 44 -15 7 -8 23 -15 36 -15 13 0 28 -8 33 -17 10 -17 10 -17 11 0 0 28
15 19 30 -18 7 -19 22 -37 32 -41 28 -8 38 -45 38 -132 0 -128 4 -123 -109
-120 l-96 3 -3 144 c-2 118 0 147 13 161 14 15 11 17 -42 19 -33 1 -65 8 -74
17 -10 9 -38 14 -79 14 -39 0 -60 4 -54 9 15 15 65 17 129 4 33 -7 74 -13 91
-13z m-2952 -35 c19 -19 38 -35 45 -35 6 0 11 -4 11 -10 0 -5 7 -10 16 -10 8
0 13 -4 10 -9 -4 -5 -12 -8 -19 -6 -38 9 -56 19 -61 31 -3 8 -12 14 -21 14 -8
0 -15 7 -15 15 0 8 -4 15 -10 15 -5 0 -10 7 -10 15 0 24 19 17 54 -20z m2035
-13 c1 -10 -2 -10 -12 0 -8 7 -12 21 -9 32 5 20 5 20 13 0 4 -10 8 -25 8 -32z
m-2169 -23 c0 -20 -15 -26 -24 -10 -8 13 4 42 15 35 5 -3 9 -14 9 -25z m118
-52 c12 -3 11 -5 -5 -6 -26 -1 -38 14 -27 37 6 15 8 14 11 -5 2 -12 12 -24 21
-26z m-118 -12 c0 -15 -6 -25 -15 -25 -12 0 -13 4 -3 25 6 14 13 25 15 25 1 0
3 -11 3 -25z m-62 -22 c-10 -2 -26 -2 -35 0 -10 3 -2 5 17 5 19 0 27 -2 18 -5z
m362 -8 c0 -8 -2 -15 -4 -15 -2 0 -6 7 -10 15 -3 8 -1 15 4 15 6 0 10 -7 10
-15z m-47 -41 c9 -9 -4 -35 -14 -28 -5 3 -9 12 -9 20 0 14 12 19 23 8z m2087
-50 c0 -20 -4 -25 -16 -20 -9 3 -20 6 -25 6 -10 0 22 38 34 39 4 1 7 -11 7
-25z m-2133 -75 c24 -11 43 -24 43 -28 0 -4 15 -5 34 -3 21 2 44 -2 58 -12 22
-16 22 -16 -14 -16 -42 0 -59 -15 -28 -25 28 -9 30 -85 1 -85 -10 0 -31 -6
-46 -14 -28 -15 -59 -11 -49 5 3 5 -2 9 -10 9 -10 0 -16 9 -16 25 0 18 -5 25
-20 25 -18 0 -20 7 -20 70 0 79 2 80 67 49z m2483 -95 c0 -8 -5 -12 -10 -9 -6
4 -8 11 -5 16 9 14 15 11 15 -7z m-350 -5 c0 -7 -8 -17 -17 -24 -18 -14 -43
-117 -35 -147 2 -10 12 -19 21 -19 9 -1 -3 -5 -26 -8 -57 -10 -135 1 -112 14
23 14 30 96 10 112 -14 10 -12 14 9 32 14 11 30 20 36 21 6 0 17 7 24 15 15
18 90 21 90 4z m190 -28 c0 -6 -4 -13 -10 -16 -5 -3 -10 1 -10 9 0 9 5 16 10
16 6 0 10 -4 10 -9z m-3273 -43 c-3 -8 -6 -5 -6 6 -1 11 2 17 5 13 3 -3 4 -12
1 -19z m0 -70 c-2 -13 -4 -5 -4 17 -1 22 1 32 4 23 2 -10 2 -28 0 -40z m3534
29 c-1 -4 -1 -14 -1 -22 0 -8 -4 -15 -9 -15 -5 0 -8 11 -8 25 0 14 4 24 9 23
5 -2 9 -7 9 -11z m59 -23 c0 -31 -23 -28 -28 4 -2 15 2 22 12 22 11 0 16 -9
16 -26z m-14 -50 c15 -2 24 2 24 12 0 9 10 14 28 14 26 0 28 -3 24 -29 -3 -21
-8 -28 -19 -24 -12 5 -14 1 -8 -15 9 -32 -3 -62 -26 -62 -11 0 -17 4 -14 10 3
5 -12 12 -35 16 -33 5 -38 9 -29 20 7 8 9 29 6 50 -5 31 -4 34 9 23 8 -7 26
-14 40 -15z m-693 -11 c-7 -2 -21 -2 -30 0 -10 3 -4 5 12 5 17 0 24 -2 18 -5z
m240 0 c-7 -2 -21 -2 -30 0 -10 3 -4 5 12 5 17 0 24 -2 18 -5z m170 -74 c4
-13 10 -18 17 -14 9 6 9 10 -1 16 -7 4 -10 11 -7 15 10 9 119 -36 125 -53 3
-8 23 -13 58 -13 38 0 55 -4 59 -15 4 -11 22 -15 74 -15 38 0 72 -3 76 -7 7
-8 -95 -34 -129 -34 -31 1 -135 18 -180 30 -22 6 -56 11 -76 11 -23 0 -39 6
-43 15 -4 10 -20 15 -53 15 -35 1 -44 3 -32 10 9 5 29 8 45 6 38 -5 60 17 38
38 -14 15 -14 16 4 16 12 0 22 -9 25 -21z m150 14 c-7 -2 -21 -2 -30 0 -10 3
-4 5 12 5 17 0 24 -2 18 -5z m417 -83 c0 -5 -4 -10 -10 -10 -5 0 -10 5 -10 10
0 6 5 10 10 10 6 0 10 -4 10 -10z m-670 -26 c0 -11 -8 -14 -32 -12 -46 4 -49
28 -4 28 26 0 36 -4 36 -16z m-4040 -502 c3 -117 4 -217 2 -222 -2 -6 -10 -10
-18 -10 -12 0 -19 -26 -15 -52 0 -5 -14 -9 -31 -9 -30 -2 -31 -2 -6 -6 15 -2
30 -12 33 -22 10 -33 8 -92 -3 -103 -7 -7 -12 -20 -12 -30 0 -10 -7 -18 -16
-18 -9 0 -23 -8 -30 -17 -12 -16 -13 -16 -14 -2 0 24 -29 33 -37 11 -13 -37
-36 -52 -78 -52 -40 0 -42 2 -37 25 6 33 55 68 82 60 15 -5 28 2 49 26 17 18
27 37 24 42 -3 5 -10 2 -15 -7 -5 -9 -16 -16 -25 -16 -9 0 -21 -7 -28 -16 -11
-15 -14 -14 -34 7 -20 22 -23 23 -35 7 -6 -9 -29 -19 -49 -23 -21 -4 -40 -11
-43 -16 -3 -5 -22 -9 -43 -9 -20 0 -42 -5 -49 -12 -6 -6 -14 -10 -16 -7 -3 2
-6 124 -7 271 -2 206 1 270 11 282 8 10 29 16 55 16 29 0 45 5 49 15 3 9 18
15 40 15 21 0 36 6 40 15 3 8 16 15 29 15 13 0 32 7 43 15 10 8 30 15 44 15
14 0 36 7 50 15 14 8 39 14 55 12 l30 -2 5 -213z m-4 -519 c-4 -9 -10 -13 -14
-9 -10 11 -9 30 3 38 13 9 19 -7 11 -29z"/>
<path d="M4000 2625 c0 -8 5 -15 10 -15 6 0 10 7 10 15 0 8 -4 15 -10 15 -5 0
-10 -7 -10 -15z"/>
<path d="M3950 2588 c0 -19 2 -20 10 -8 13 19 13 30 0 30 -5 0 -10 -10 -10
-22z"/>
<path d="M4030 2602 c0 -4 9 -13 19 -19 15 -10 20 -9 24 2 3 7 -1 16 -9 19
-21 8 -34 7 -34 -2z"/>
<path d="M7226 2185 c-3 -8 -1 -15 4 -15 6 0 10 7 10 15 0 8 -2 15 -4 15 -2 0
-6 -7 -10 -15z"/>
<path d="M7074 2130 c0 -26 -5 -44 -14 -50 -8 -5 -11 -13 -6 -17 5 -4 11 -2
13 5 3 6 15 12 28 12 13 0 27 5 30 10 3 6 2 10 -4 10 -5 0 -11 15 -13 32 -2
21 -9 34 -19 36 -13 2 -16 -5 -15 -38z"/>
<path d="M4710 2484 c0 -8 5 -12 10 -9 6 3 10 10 10 16 0 5 -4 9 -10 9 -5 0
-10 -7 -10 -16z"/>
<path d="M4670 2320 c0 -5 9 -10 21 -10 11 0 17 5 14 10 -3 6 -13 10 -21 10
-8 0 -14 -4 -14 -10z"/>
<path d="M4700 1815 c0 -8 5 -15 10 -15 6 0 10 7 10 15 0 8 -4 15 -10 15 -5 0
-10 -7 -10 -15z"/>
<path d="M7344 1625 c-7 -16 3 -35 17 -35 6 0 8 4 4 9 -3 5 -1 12 5 16 15 9
12 25 -5 25 -9 0 -18 -7 -21 -15z"/>
<path d="M2643 1043 c-9 -34 -11 -35 -12 -10 -1 29 -15 36 -28 13 -4 -7 -18
-18 -30 -25 -15 -8 -23 -21 -23 -39 0 -48 -11 -72 -34 -73 -17 -1 -17 -2 -3
-6 11 -3 17 -14 17 -34 0 -16 5 -29 10 -29 6 0 10 -12 10 -26 0 -18 6 -28 21
-31 12 -3 27 -22 36 -45 8 -21 23 -43 32 -47 26 -14 69 -2 75 22 9 34 8 37
-19 37 -16 0 -25 -6 -25 -15 0 -8 -9 -15 -21 -15 -18 0 -20 5 -17 42 l3 41 50
5 c28 2 51 5 53 6 2 3 5 216 3 249 -1 13 -10 17 -44 17 -42 0 -44 -2 -54 -37z"/>
</g>
</svg>
